<svg width="487" height="456" viewBox="0 0 487 456" fill="none" xmlns="http://www.w3.org/2000/svg">
  <rect width="487" height="456" fill="#FCFDFD" />
  <defs>
    <linearGradient id="rovik-arrow" x1="197" y1="209" x2="414" y2="44" gradientUnits="userSpaceOnUse">
      <stop offset="0" stop-color="#16C5C7" />
      <stop offset="1" stop-color="#10B6C2" />
    </linearGradient>
    <linearGradient id="rovik-swoosh" x1="170" y1="220" x2="339" y2="337" gradientUnits="userSpaceOnUse">
      <stop offset="0" stop-color="#17C8C9" />
      <stop offset="1" stop-color="#0D8D82" />
    </linearGradient>
  </defs>

  <g transform="translate(18 14)">
    <path
      d="M108 27V296"
      stroke="#0A2F67"
      stroke-width="36"
      stroke-linecap="round"
    />
    <path
      d="M108 27H223C276 27 315 44 342 77"
      stroke="#0A2F67"
      stroke-width="36"
      stroke-linecap="round"
      stroke-linejoin="round"
    />
    <path
      d="M108 161C135 120 176 99 223 99C295 99 345 149 345 218C345 286 295 336 226 336C178 336 139 318 108 282"
      stroke="#0A2F67"
      stroke-width="36"
      stroke-linecap="round"
      stroke-linejoin="round"
    />
    <path
      d="M173 186C220 184 261 159 310 115C328 99 346 80 367 54"
      stroke="url(#rovik-arrow)"
      stroke-width="30"
      stroke-linecap="round"
      stroke-linejoin="round"
    />
    <path d="M330 63L406 45L379 118Z" fill="url(#rovik-arrow)" />
    <path
      d="M169 222C211 225 242 246 283 293C299 311 317 328 337 346"
      stroke="url(#rovik-swoosh)"
      stroke-width="28"
      stroke-linecap="round"
      stroke-linejoin="round"
      opacity="0.98"
    />
  </g>

  <text
    x="244"
    y="382"
    fill="#0A2F67"
    font-family="Arial, Helvetica, sans-serif"
    font-size="72"
    font-weight="700"
    letter-spacing="3.2"
    text-anchor="middle"
  >
    ROVIK
  </text>
  <text
    x="244"
    y="428"
    fill="#8A9098"
    font-family="Arial, Helvetica, sans-serif"
    font-size="22"
    font-weight="500"
    letter-spacing="4.4"
    text-anchor="middle"
  >
    SIMPLY FORWARD
  </text>
</svg>
